<svg width="512" height="512" viewBox="0 0 512 512" xmlns="http://www.w3.org/2000/svg">
  <rect width="512" height="512" rx="120" fill="#10B981"/>
  <!-- Heart shape -->
  <path d="M 256 410
           C 256 410, 90 320, 90 200
           C 90 140, 140 100, 195 110
           C 230 116, 256 145, 256 170
           C 256 145, 282 116, 317 110
           C 372 100, 422 140, 422 200
           C 422 320, 256 410, 256 410 Z"
        fill="white"/>
  <!-- Pulse / ECG line through heart -->
  <polyline points="120,250 175,250 200,210 225,290 260,180 295,290 320,210 345,250 400,250"
            fill="none" stroke="#10B981" stroke-width="14"
            stroke-linecap="round" stroke-linejoin="round"/>
</svg>
